<svg xmlns="http://www.w3.org/2000/svg" version="1.1" xmlns:xlink="http://www.w3.org/1999/xlink" xmlns:svgjs="http://svgjs.com/svgjs" width="1440" height="560" preserveAspectRatio="none" viewBox="0 0 1440 560"><g mask="url(&quot;#SvgjsMask1012&quot;)" fill="none"><path d="M-47.95 524.9L-47.95 524.9" stroke="#132e65" stroke-width="1.5"></path><path d="M-47.95 524.9L-94.71 648.17" stroke="#132e65" stroke-width="1.5"></path><path d="M-47.95 524.9L104.9 517.48" stroke="#132e65" stroke-width="1.5"></path><path d="M-47.95 524.9L52.23 671.28" stroke="#132e65" stroke-width="1.5"></path><path d="M-47.95 524.9L95 398.07" stroke="#132e65" stroke-width="1.5"></path><path d="M-94.71 648.17L-94.71 648.17" stroke="#132e65" stroke-width="1.5"></path><path d="M-94.71 648.17L52.23 671.28" stroke="#132e65" stroke-width="1.5"></path><path d="M-94.71 648.17L104.9 517.48" stroke="#132e65" stroke-width="1.5"></path><path d="M-94.71 648.17L95 398.07" stroke="#132e65" stroke-width="1.5"></path><path d="M-94.71 648.17L203.7 547.29" stroke="#132e65" stroke-width="1.5"></path><path d="M95 398.07L95 398.07" stroke="#132e65" stroke-width="1.5"></path><path d="M95 398.07L104.9 517.48" stroke="#132e65" stroke-width="1.5"></path><path d="M95 398.07L226.58 348.93" stroke="#132e65" stroke-width="1.5"></path><path d="M95 398.07L203.7 547.29" stroke="#132e65" stroke-width="1.5"></path><path d="M104.9 517.48L104.9 517.48" stroke="#132e65" stroke-width="1.5"></path><path d="M104.9 517.48L203.7 547.29" stroke="#132e65" stroke-width="1.5"></path><path d="M104.9 517.48L52.23 671.28" stroke="#132e65" stroke-width="1.5"></path><path d="M52.23 671.28L52.23 671.28" stroke="#132e65" stroke-width="1.5"></path><path d="M52.23 671.28L235.34 700.2" stroke="#132e65" stroke-width="1.5"></path><path d="M226.58 348.93L226.58 348.93" stroke="#132e65" stroke-width="1.5"></path><path d="M203.7 547.29L203.7 547.29" stroke="#132e65" stroke-width="1.5"></path><path d="M203.7 547.29L235.34 700.2" stroke="#132e65" stroke-width="1.5"></path><path d="M203.7 547.29L377.3 526.45" stroke="#132e65" stroke-width="1.5"></path><path d="M235.34 700.2L235.34 700.2" stroke="#132e65" stroke-width="1.5"></path><path d="M373.2 348.43L373.2 348.43" stroke="#132e65" stroke-width="1.5"></path><path d="M373.2 348.43L226.58 348.93" stroke="#132e65" stroke-width="1.5"></path><path d="M373.2 348.43L511.36 402.28" stroke="#132e65" stroke-width="1.5"></path><path d="M373.2 348.43L377.3 526.45" stroke="#132e65" stroke-width="1.5"></path><path d="M377.3 526.45L377.3 526.45" stroke="#132e65" stroke-width="1.5"></path><path d="M377.3 526.45L393.9 657.32" stroke="#132e65" stroke-width="1.5"></path><path d="M377.3 526.45L537.45 534.57" stroke="#132e65" stroke-width="1.5"></path><path d="M393.9 657.32L393.9 657.32" stroke="#132e65" stroke-width="1.5"></path><path d="M393.9 657.32L532.74 662.33" stroke="#132e65" stroke-width="1.5"></path><path d="M393.9 657.32L235.34 700.2" stroke="#132e65" stroke-width="1.5"></path><path d="M511.36 402.28L511.36 402.28" stroke="#132e65" stroke-width="1.5"></path><path d="M511.36 402.28L537.45 534.57" stroke="#132e65" stroke-width="1.5"></path><path d="M511.36 402.28L659.67 340.99" stroke="#132e65" stroke-width="1.5"></path><path d="M537.45 534.57L537.45 534.57" stroke="#132e65" stroke-width="1.5"></path><path d="M537.45 534.57L532.74 662.33" stroke="#132e65" stroke-width="1.5"></path><path d="M537.45 534.57L681.97 554.34" stroke="#132e65" stroke-width="1.5"></path><path d="M537.45 534.57L646.3 645.01" stroke="#132e65" stroke-width="1.5"></path><path d="M537.45 534.57L393.9 657.32" stroke="#132e65" stroke-width="1.5"></path><path d="M532.74 662.33L532.74 662.33" stroke="#132e65" stroke-width="1.5"></path><path d="M532.74 662.33L646.3 645.01" stroke="#132e65" stroke-width="1.5"></path><path d="M659.67 340.99L659.67 340.99" stroke="#132e65" stroke-width="1.5"></path><path d="M659.67 340.99L804.38 345.46" stroke="#132e65" stroke-width="1.5"></path><path d="M659.67 340.99L814.71 217.44" stroke="#132e65" stroke-width="1.5"></path><path d="M659.67 340.99L681.97 554.34" stroke="#132e65" stroke-width="1.5"></path><path d="M681.97 554.34L681.97 554.34" stroke="#132e65" stroke-width="1.5"></path><path d="M681.97 554.34L646.3 645.01" stroke="#132e65" stroke-width="1.5"></path><path d="M681.97 554.34L827.36 553.68" stroke="#132e65" stroke-width="1.5"></path><path d="M646.3 645.01L646.3 645.01" stroke="#132e65" stroke-width="1.5"></path><path d="M814.71 217.44L814.71 217.44" stroke="#132e65" stroke-width="1.5"></path><path d="M814.71 217.44L804.38 345.46" stroke="#132e65" stroke-width="1.5"></path><path d="M814.71 217.44L959.87 248.19" stroke="#132e65" stroke-width="1.5"></path><path d="M814.71 217.44L981.96 80.89" stroke="#132e65" stroke-width="1.5"></path><path d="M814.71 217.44L954.73 409.32" stroke="#132e65" stroke-width="1.5"></path><path d="M814.71 217.44L1108.39 245.69" stroke="#132e65" stroke-width="1.5"></path><path d="M804.38 345.46L804.38 345.46" stroke="#132e65" stroke-width="1.5"></path><path d="M804.38 345.46L954.73 409.32" stroke="#132e65" stroke-width="1.5"></path><path d="M827.36 553.68L827.36 553.68" stroke="#132e65" stroke-width="1.5"></path><path d="M827.36 553.68L975.22 501.94" stroke="#132e65" stroke-width="1.5"></path><path d="M827.36 553.68L968.49 684.4" stroke="#132e65" stroke-width="1.5"></path><path d="M827.36 553.68L954.73 409.32" stroke="#132e65" stroke-width="1.5"></path><path d="M984.75 -39.72L984.75 -39.72" stroke="#132e65" stroke-width="1.5"></path><path d="M984.75 -39.72L981.96 80.89" stroke="#132e65" stroke-width="1.5"></path><path d="M984.75 -39.72L1096.46 54.75" stroke="#132e65" stroke-width="1.5"></path><path d="M984.75 -39.72L1123.3 -108.39" stroke="#132e65" stroke-width="1.5"></path><path d="M981.96 80.89L981.96 80.89" stroke="#132e65" stroke-width="1.5"></path><path d="M981.96 80.89L1096.46 54.75" stroke="#132e65" stroke-width="1.5"></path><path d="M981.96 80.89L959.87 248.19" stroke="#132e65" stroke-width="1.5"></path><path d="M981.96 80.89L1108.39 245.69" stroke="#132e65" stroke-width="1.5"></path><path d="M959.87 248.19L959.87 248.19" stroke="#132e65" stroke-width="1.5"></path><path d="M959.87 248.19L1108.39 245.69" stroke="#132e65" stroke-width="1.5"></path><path d="M959.87 248.19L954.73 409.32" stroke="#132e65" stroke-width="1.5"></path><path d="M954.73 409.32L954.73 409.32" stroke="#132e65" stroke-width="1.5"></path><path d="M954.73 409.32L975.22 501.94" stroke="#132e65" stroke-width="1.5"></path><path d="M954.73 409.32L1091.95 515.24" stroke="#132e65" stroke-width="1.5"></path><path d="M954.73 409.32L1138.34 352.86" stroke="#132e65" stroke-width="1.5"></path><path d="M975.22 501.94L975.22 501.94" stroke="#132e65" stroke-width="1.5"></path><path d="M975.22 501.94L1091.95 515.24" stroke="#132e65" stroke-width="1.5"></path><path d="M968.49 684.4L968.49 684.4" stroke="#132e65" stroke-width="1.5"></path><path d="M968.49 684.4L975.22 501.94" stroke="#132e65" stroke-width="1.5"></path><path d="M968.49 684.4L1156.75 677.61" stroke="#132e65" stroke-width="1.5"></path><path d="M968.49 684.4L1091.95 515.24" stroke="#132e65" stroke-width="1.5"></path><path d="M968.49 684.4L954.73 409.32" stroke="#132e65" stroke-width="1.5"></path><path d="M968.49 684.4L1261.85 656.26" stroke="#132e65" stroke-width="1.5"></path><path d="M1123.3 -108.39L1123.3 -108.39" stroke="#132e65" stroke-width="1.5"></path><path d="M1123.3 -108.39L1251.61 -110.19" stroke="#132e65" stroke-width="1.5"></path><path d="M1096.46 54.75L1096.46 54.75" stroke="#132e65" stroke-width="1.5"></path><path d="M1108.39 245.69L1108.39 245.69" stroke="#132e65" stroke-width="1.5"></path><path d="M1108.39 245.69L1138.34 352.86" stroke="#132e65" stroke-width="1.5"></path><path d="M1108.39 245.69L1244.08 220.43" stroke="#132e65" stroke-width="1.5"></path><path d="M1108.39 245.69L1246.7 371.35" stroke="#132e65" stroke-width="1.5"></path><path d="M1138.34 352.86L1138.34 352.86" stroke="#132e65" stroke-width="1.5"></path><path d="M1138.34 352.86L1246.7 371.35" stroke="#132e65" stroke-width="1.5"></path><path d="M1138.34 352.86L1091.95 515.24" stroke="#132e65" stroke-width="1.5"></path><path d="M1138.34 352.86L1244.08 220.43" stroke="#132e65" stroke-width="1.5"></path><path d="M1091.95 515.24L1091.95 515.24" stroke="#132e65" stroke-width="1.5"></path><path d="M1156.75 677.61L1156.75 677.61" stroke="#132e65" stroke-width="1.5"></path><path d="M1156.75 677.61L1261.85 656.26" stroke="#132e65" stroke-width="1.5"></path><path d="M1156.75 677.61L1091.95 515.24" stroke="#132e65" stroke-width="1.5"></path><path d="M1251.61 -110.19L1251.61 -110.19" stroke="#132e65" stroke-width="1.5"></path><path d="M1251.61 -110.19L1420.33 -93.76" stroke="#132e65" stroke-width="1.5"></path><path d="M1251.61 -110.19L1250.23 83.66" stroke="#132e65" stroke-width="1.5"></path><path d="M1251.61 -110.19L1405.27 54.01" stroke="#132e65" stroke-width="1.5"></path><path d="M1251.61 -110.19L1096.46 54.75" stroke="#132e65" stroke-width="1.5"></path><path d="M1250.23 83.66L1250.23 83.66" stroke="#132e65" stroke-width="1.5"></path><path d="M1250.23 83.66L1244.08 220.43" stroke="#132e65" stroke-width="1.5"></path><path d="M1250.23 83.66L1096.46 54.75" stroke="#132e65" stroke-width="1.5"></path><path d="M1250.23 83.66L1405.27 54.01" stroke="#132e65" stroke-width="1.5"></path><path d="M1250.23 83.66L1404.4 206.97" stroke="#132e65" stroke-width="1.5"></path><path d="M1244.08 220.43L1244.08 220.43" stroke="#132e65" stroke-width="1.5"></path><path d="M1244.08 220.43L1246.7 371.35" stroke="#132e65" stroke-width="1.5"></path><path d="M1246.7 371.35L1246.7 371.35" stroke="#132e65" stroke-width="1.5"></path><path d="M1260.65 529.84L1260.65 529.84" stroke="#132e65" stroke-width="1.5"></path><path d="M1260.65 529.84L1261.85 656.26" stroke="#132e65" stroke-width="1.5"></path><path d="M1260.65 529.84L1246.7 371.35" stroke="#132e65" stroke-width="1.5"></path><path d="M1260.65 529.84L1091.95 515.24" stroke="#132e65" stroke-width="1.5"></path><path d="M1261.85 656.26L1261.85 656.26" stroke="#132e65" stroke-width="1.5"></path><path d="M1261.85 656.26L1395.17 661.47" stroke="#132e65" stroke-width="1.5"></path><path d="M1420.33 -93.76L1420.33 -93.76" stroke="#132e65" stroke-width="1.5"></path><path d="M1420.33 -93.76L1405.27 54.01" stroke="#132e65" stroke-width="1.5"></path><path d="M1405.27 54.01L1405.27 54.01" stroke="#132e65" stroke-width="1.5"></path><path d="M1405.27 54.01L1404.4 206.97" stroke="#132e65" stroke-width="1.5"></path><path d="M1404.4 206.97L1404.4 206.97" stroke="#132e65" stroke-width="1.5"></path><path d="M1404.4 206.97L1424.72 355.63" stroke="#132e65" stroke-width="1.5"></path><path d="M1424.72 355.63L1424.72 355.63" stroke="#132e65" stroke-width="1.5"></path><path d="M1424.72 355.63L1539.68 364.03" stroke="#132e65" stroke-width="1.5"></path><path d="M1424.72 355.63L1443.36 529.61" stroke="#132e65" stroke-width="1.5"></path><path d="M1424.72 355.63L1246.7 371.35" stroke="#132e65" stroke-width="1.5"></path><path d="M1443.36 529.61L1443.36 529.61" stroke="#132e65" stroke-width="1.5"></path><path d="M1443.36 529.61L1395.17 661.47" stroke="#132e65" stroke-width="1.5"></path><path d="M1443.36 529.61L1609.52 499.61" stroke="#132e65" stroke-width="1.5"></path><path d="M1443.36 529.61L1260.65 529.84" stroke="#132e65" stroke-width="1.5"></path><path d="M1395.17 661.47L1395.17 661.47" stroke="#132e65" stroke-width="1.5"></path><path d="M1585.42 -45.01L1585.42 -45.01" stroke="#132e65" stroke-width="1.5"></path><path d="M1585.42 -45.01L1610.1 73.68" stroke="#132e65" stroke-width="1.5"></path><path d="M1585.42 -45.01L1420.33 -93.76" stroke="#132e65" stroke-width="1.5"></path><path d="M1585.42 -45.01L1405.27 54.01" stroke="#132e65" stroke-width="1.5"></path><path d="M1585.42 -45.01L1601.48 203.96" stroke="#132e65" stroke-width="1.5"></path><path d="M1585.42 -45.01L1404.4 206.97" stroke="#132e65" stroke-width="1.5"></path><path d="M1610.1 73.68L1610.1 73.68" stroke="#132e65" stroke-width="1.5"></path><path d="M1610.1 73.68L1601.48 203.96" stroke="#132e65" stroke-width="1.5"></path><path d="M1610.1 73.68L1405.27 54.01" stroke="#132e65" stroke-width="1.5"></path><path d="M1601.48 203.96L1601.48 203.96" stroke="#132e65" stroke-width="1.5"></path><path d="M1601.48 203.96L1539.68 364.03" stroke="#132e65" stroke-width="1.5"></path><path d="M1601.48 203.96L1404.4 206.97" stroke="#132e65" stroke-width="1.5"></path><path d="M1601.48 203.96L1424.72 355.63" stroke="#132e65" stroke-width="1.5"></path><path d="M1539.68 364.03L1539.68 364.03" stroke="#132e65" stroke-width="1.5"></path><path d="M1539.68 364.03L1609.52 499.61" stroke="#132e65" stroke-width="1.5"></path><path d="M1539.68 364.03L1443.36 529.61" stroke="#132e65" stroke-width="1.5"></path><path d="M1539.68 364.03L1404.4 206.97" stroke="#132e65" stroke-width="1.5"></path><path d="M1609.52 499.61L1609.52 499.61" stroke="#132e65" stroke-width="1.5"></path><path d="M1609.52 499.61L1548.56 710.36" stroke="#132e65" stroke-width="1.5"></path><path d="M1609.52 499.61L1424.72 355.63" stroke="#132e65" stroke-width="1.5"></path><path d="M1548.56 710.36L1548.56 710.36" stroke="#132e65" stroke-width="1.5"></path><path d="M1548.56 710.36L1395.17 661.47" stroke="#132e65" stroke-width="1.5"></path><path d="M1548.56 710.36L1443.36 529.61" stroke="#132e65" stroke-width="1.5"></path><path d="M1548.56 710.36L1261.85 656.26" stroke="#132e65" stroke-width="1.5"></path><path d="M1548.56 710.36L1260.65 529.84" stroke="#132e65" stroke-width="1.5"></path><circle r="5" cx="-47.95" cy="524.9" fill="#132e65"></circle><circle r="5" cx="-94.71" cy="648.17" fill="#132e65"></circle><circle r="5" cx="95" cy="398.07" fill="#132e65"></circle><circle r="5" cx="104.9" cy="517.48" fill="#132e65"></circle><circle r="5" cx="52.23" cy="671.28" fill="#132e65"></circle><circle r="5" cx="226.58" cy="348.93" fill="#132e65"></circle><circle r="5" cx="203.7" cy="547.29" fill="#132e65"></circle><circle r="5" cx="235.34" cy="700.2" fill="#132e65"></circle><circle r="5" cx="373.2" cy="348.43" fill="#132e65"></circle><circle r="5" cx="377.3" cy="526.45" fill="#132e65"></circle><circle r="5" cx="393.9" cy="657.32" fill="#132e65"></circle><circle r="5" cx="511.36" cy="402.28" fill="#132e65"></circle><circle r="5" cx="537.45" cy="534.57" fill="#132e65"></circle><circle r="5" cx="532.74" cy="662.33" fill="#132e65"></circle><circle r="5" cx="659.67" cy="340.99" fill="#132e65"></circle><circle r="5" cx="681.97" cy="554.34" fill="#132e65"></circle><circle r="5" cx="646.3" cy="645.01" fill="#132e65"></circle><circle r="5" cx="814.71" cy="217.44" fill="#132e65"></circle><circle r="5" cx="804.38" cy="345.46" fill="#132e65"></circle><circle r="5" cx="827.36" cy="553.68" fill="#132e65"></circle><circle r="5" cx="984.75" cy="-39.72" fill="#132e65"></circle><circle r="5" cx="981.96" cy="80.89" fill="#132e65"></circle><circle r="5" cx="959.87" cy="248.19" fill="#132e65"></circle><circle r="5" cx="954.73" cy="409.32" fill="#132e65"></circle><circle r="5" cx="975.22" cy="501.94" fill="#132e65"></circle><circle r="5" cx="968.49" cy="684.4" fill="#132e65"></circle><circle r="5" cx="1123.3" cy="-108.39" fill="#132e65"></circle><circle r="5" cx="1096.46" cy="54.75" fill="#132e65"></circle><circle r="5" cx="1108.39" cy="245.69" fill="#132e65"></circle><circle r="5" cx="1138.34" cy="352.86" fill="#132e65"></circle><circle r="5" cx="1091.95" cy="515.24" fill="#132e65"></circle><circle r="5" cx="1156.75" cy="677.61" fill="#132e65"></circle><circle r="5" cx="1251.61" cy="-110.19" fill="#132e65"></circle><circle r="5" cx="1250.23" cy="83.66" fill="#132e65"></circle><circle r="5" cx="1244.08" cy="220.43" fill="#132e65"></circle><circle r="5" cx="1246.7" cy="371.35" fill="#132e65"></circle><circle r="5" cx="1260.65" cy="529.84" fill="#132e65"></circle><circle r="5" cx="1261.85" cy="656.26" fill="#132e65"></circle><circle r="5" cx="1420.33" cy="-93.76" fill="#132e65"></circle><circle r="5" cx="1405.27" cy="54.01" fill="#132e65"></circle><circle r="5" cx="1404.4" cy="206.97" fill="#132e65"></circle><circle r="5" cx="1424.72" cy="355.63" fill="#132e65"></circle><circle r="5" cx="1443.36" cy="529.61" fill="#132e65"></circle><circle r="5" cx="1395.17" cy="661.47" fill="#132e65"></circle><circle r="5" cx="1585.42" cy="-45.01" fill="#132e65"></circle><circle r="5" cx="1610.1" cy="73.68" fill="#132e65"></circle><circle r="5" cx="1601.48" cy="203.96" fill="#132e65"></circle><circle r="5" cx="1539.68" cy="364.03" fill="#132e65"></circle><circle r="5" cx="1609.52" cy="499.61" fill="#132e65"></circle><circle r="5" cx="1548.56" cy="710.36" fill="#132e65"></circle><path d="M-80.86 654.95L-80.86 654.95" stroke="hsl(209.60000000000002, 29.6%, 59.4%)" stroke-width="1.5"></path><path d="M-80.86 654.95L-49.82 504.29" stroke="hsl(209.60000000000002, 29.6%, 59.4%)" stroke-width="1.5"></path><path d="M-80.86 654.95L44.62 525.01" stroke="hsl(209.60000000000002, 29.6%, 59.4%)" stroke-width="1.5"></path><path d="M-80.86 654.95L104.63 706.82" stroke="hsl(209.60000000000002, 29.6%, 59.4%)" stroke-width="1.5"></path><path d="M-80.86 654.95L236.5 643.75" stroke="hsl(209.60000000000002, 29.6%, 59.4%)" stroke-width="1.5"></path><path d="M-80.86 654.95L218.27 490.05" stroke="hsl(209.60000000000002, 29.6%, 59.4%)" stroke-width="1.5"></path><path d="M236.5 643.75L236.5 643.75" stroke="hsl(209.60000000000002, 29.6%, 59.4%)" stroke-width="1.5"></path><path d="M236.5 643.75L104.63 706.82" stroke="hsl(209.60000000000002, 29.6%, 59.4%)" stroke-width="1.5"></path><path d="M236.5 643.75L387.04 660.97" stroke="hsl(209.60000000000002, 29.6%, 59.4%)" stroke-width="1.5"></path><path d="M236.5 643.75L218.27 490.05" stroke="hsl(209.60000000000002, 29.6%, 59.4%)" stroke-width="1.5"></path><path d="M830.81 492.15L830.81 492.15" stroke="hsl(209.60000000000002, 29.6%, 59.4%)" stroke-width="1.5"></path><path d="M830.81 492.15L703.16 558.95" stroke="hsl(209.60000000000002, 29.6%, 59.4%)" stroke-width="1.5"></path><path d="M830.81 492.15L819.41 343.87" stroke="hsl(209.60000000000002, 29.6%, 59.4%)" stroke-width="1.5"></path><path d="M830.81 492.15L995.71 543.13" stroke="hsl(209.60000000000002, 29.6%, 59.4%)" stroke-width="1.5"></path><path d="M830.81 492.15L948.77 352.7" stroke="hsl(209.60000000000002, 29.6%, 59.4%)" stroke-width="1.5"></path><path d="M995.71 543.13L995.71 543.13" stroke="hsl(209.60000000000002, 29.6%, 59.4%)" stroke-width="1.5"></path><path d="M995.71 543.13L955.08 639.4" stroke="hsl(209.60000000000002, 29.6%, 59.4%)" stroke-width="1.5"></path><path d="M995.71 543.13L1110.51 541.81" stroke="hsl(209.60000000000002, 29.6%, 59.4%)" stroke-width="1.5"></path><path d="M995.71 543.13L948.77 352.7" stroke="hsl(209.60000000000002, 29.6%, 59.4%)" stroke-width="1.5"></path><path d="M995.71 543.13L1106.42 708.07" stroke="hsl(209.60000000000002, 29.6%, 59.4%)" stroke-width="1.5"></path><path d="M995.71 543.13L1103.42 368.78" stroke="hsl(209.60000000000002, 29.6%, 59.4%)" stroke-width="1.5"></path><path d="M1110.51 541.81L1110.51 541.81" stroke="hsl(209.60000000000002, 29.6%, 59.4%)" stroke-width="1.5"></path><path d="M1110.51 541.81L1106.42 708.07" stroke="hsl(209.60000000000002, 29.6%, 59.4%)" stroke-width="1.5"></path><path d="M1110.51 541.81L1103.42 368.78" stroke="hsl(209.60000000000002, 29.6%, 59.4%)" stroke-width="1.5"></path><path d="M1110.51 541.81L955.08 639.4" stroke="hsl(209.60000000000002, 29.6%, 59.4%)" stroke-width="1.5"></path><path d="M1110.51 541.81L1274.46 645.07" stroke="hsl(209.60000000000002, 29.6%, 59.4%)" stroke-width="1.5"></path><path d="M1257.85 -54.6L1257.85 -54.6" stroke="hsl(209.60000000000002, 29.6%, 59.4%)" stroke-width="1.5"></path><path d="M1257.85 -54.6L1285.98 99.3" stroke="hsl(209.60000000000002, 29.6%, 59.4%)" stroke-width="1.5"></path><path d="M1257.85 -54.6L1416.3 -98.9" stroke="hsl(209.60000000000002, 29.6%, 59.4%)" stroke-width="1.5"></path><path d="M1257.85 -54.6L1391.2 80.96" stroke="hsl(209.60000000000002, 29.6%, 59.4%)" stroke-width="1.5"></path><path d="M1257.85 -54.6L1136.81 110.43" stroke="hsl(209.60000000000002, 29.6%, 59.4%)" stroke-width="1.5"></path><path d="M1257.85 -54.6L1251.25 205.18" stroke="hsl(209.60000000000002, 29.6%, 59.4%)" stroke-width="1.5"></path><path d="M-49.82 504.29L-49.82 504.29" stroke="hsl(209.60000000000002, 29.6%, 59.4%)" stroke-width="1.5"></path><path d="M-49.82 504.29L44.62 525.01" stroke="hsl(209.60000000000002, 29.6%, 59.4%)" stroke-width="1.5"></path><path d="M-49.82 504.29L104.63 706.82" stroke="hsl(209.60000000000002, 29.6%, 59.4%)" stroke-width="1.5"></path><path d="M44.62 525.01L44.62 525.01" stroke="hsl(209.60000000000002, 29.6%, 59.4%)" stroke-width="1.5"></path><path d="M104.63 706.82L104.63 706.82" stroke="hsl(209.60000000000002, 29.6%, 59.4%)" stroke-width="1.5"></path><path d="M104.63 706.82L44.62 525.01" stroke="hsl(209.60000000000002, 29.6%, 59.4%)" stroke-width="1.5"></path><path d="M218.27 490.05L218.27 490.05" stroke="hsl(209.60000000000002, 29.6%, 59.4%)" stroke-width="1.5"></path><path d="M218.27 490.05L387.83 505.73" stroke="hsl(209.60000000000002, 29.6%, 59.4%)" stroke-width="1.5"></path><path d="M387.83 505.73L387.83 505.73" stroke="hsl(209.60000000000002, 29.6%, 59.4%)" stroke-width="1.5"></path><path d="M387.83 505.73L499.69 557.31" stroke="hsl(209.60000000000002, 29.6%, 59.4%)" stroke-width="1.5"></path><path d="M387.83 505.73L387.04 660.97" stroke="hsl(209.60000000000002, 29.6%, 59.4%)" stroke-width="1.5"></path><path d="M387.83 505.73L236.5 643.75" stroke="hsl(209.60000000000002, 29.6%, 59.4%)" stroke-width="1.5"></path><path d="M387.83 505.73L502.48 692.68" stroke="hsl(209.60000000000002, 29.6%, 59.4%)" stroke-width="1.5"></path><path d="M387.83 505.73L656.54 657.49" stroke="hsl(209.60000000000002, 29.6%, 59.4%)" stroke-width="1.5"></path><path d="M387.04 660.97L387.04 660.97" stroke="hsl(209.60000000000002, 29.6%, 59.4%)" stroke-width="1.5"></path><path d="M387.04 660.97L502.48 692.68" stroke="hsl(209.60000000000002, 29.6%, 59.4%)" stroke-width="1.5"></path><path d="M499.69 557.31L499.69 557.31" stroke="hsl(209.60000000000002, 29.6%, 59.4%)" stroke-width="1.5"></path><path d="M499.69 557.31L502.48 692.68" stroke="hsl(209.60000000000002, 29.6%, 59.4%)" stroke-width="1.5"></path><path d="M499.69 557.31L387.04 660.97" stroke="hsl(209.60000000000002, 29.6%, 59.4%)" stroke-width="1.5"></path><path d="M502.48 692.68L502.48 692.68" stroke="hsl(209.60000000000002, 29.6%, 59.4%)" stroke-width="1.5"></path><path d="M502.48 692.68L656.54 657.49" stroke="hsl(209.60000000000002, 29.6%, 59.4%)" stroke-width="1.5"></path><path d="M687.34 374.14L687.34 374.14" stroke="hsl(209.60000000000002, 29.6%, 59.4%)" stroke-width="1.5"></path><path d="M687.34 374.14L819.41 343.87" stroke="hsl(209.60000000000002, 29.6%, 59.4%)" stroke-width="1.5"></path><path d="M687.34 374.14L703.16 558.95" stroke="hsl(209.60000000000002, 29.6%, 59.4%)" stroke-width="1.5"></path><path d="M687.34 374.14L830.81 492.15" stroke="hsl(209.60000000000002, 29.6%, 59.4%)" stroke-width="1.5"></path><path d="M687.34 374.14L499.69 557.31" stroke="hsl(209.60000000000002, 29.6%, 59.4%)" stroke-width="1.5"></path><path d="M687.34 374.14L948.77 352.7" stroke="hsl(209.60000000000002, 29.6%, 59.4%)" stroke-width="1.5"></path><path d="M687.34 374.14L656.54 657.49" stroke="hsl(209.60000000000002, 29.6%, 59.4%)" stroke-width="1.5"></path><path d="M703.16 558.95L703.16 558.95" stroke="hsl(209.60000000000002, 29.6%, 59.4%)" stroke-width="1.5"></path><path d="M703.16 558.95L656.54 657.49" stroke="hsl(209.60000000000002, 29.6%, 59.4%)" stroke-width="1.5"></path><path d="M703.16 558.95L499.69 557.31" stroke="hsl(209.60000000000002, 29.6%, 59.4%)" stroke-width="1.5"></path><path d="M703.16 558.95L502.48 692.68" stroke="hsl(209.60000000000002, 29.6%, 59.4%)" stroke-width="1.5"></path><path d="M703.16 558.95L819.41 343.87" stroke="hsl(209.60000000000002, 29.6%, 59.4%)" stroke-width="1.5"></path><path d="M656.54 657.49L656.54 657.49" stroke="hsl(209.60000000000002, 29.6%, 59.4%)" stroke-width="1.5"></path><path d="M656.54 657.49L499.69 557.31" stroke="hsl(209.60000000000002, 29.6%, 59.4%)" stroke-width="1.5"></path><path d="M656.54 657.49L830.81 492.15" stroke="hsl(209.60000000000002, 29.6%, 59.4%)" stroke-width="1.5"></path><path d="M656.54 657.49L387.04 660.97" stroke="hsl(209.60000000000002, 29.6%, 59.4%)" stroke-width="1.5"></path><path d="M819.41 343.87L819.41 343.87" stroke="hsl(209.60000000000002, 29.6%, 59.4%)" stroke-width="1.5"></path><path d="M819.41 343.87L948.77 352.7" stroke="hsl(209.60000000000002, 29.6%, 59.4%)" stroke-width="1.5"></path><path d="M948.77 352.7L948.77 352.7" stroke="hsl(209.60000000000002, 29.6%, 59.4%)" stroke-width="1.5"></path><path d="M948.77 352.7L1103.42 368.78" stroke="hsl(209.60000000000002, 29.6%, 59.4%)" stroke-width="1.5"></path><path d="M955.08 639.4L955.08 639.4" stroke="hsl(209.60000000000002, 29.6%, 59.4%)" stroke-width="1.5"></path><path d="M955.08 639.4L1106.42 708.07" stroke="hsl(209.60000000000002, 29.6%, 59.4%)" stroke-width="1.5"></path><path d="M1136.81 110.43L1136.81 110.43" stroke="hsl(209.60000000000002, 29.6%, 59.4%)" stroke-width="1.5"></path><path d="M1136.81 110.43L1110.08 244.78" stroke="hsl(209.60000000000002, 29.6%, 59.4%)" stroke-width="1.5"></path><path d="M1136.81 110.43L1251.25 205.18" stroke="hsl(209.60000000000002, 29.6%, 59.4%)" stroke-width="1.5"></path><path d="M1110.08 244.78L1110.08 244.78" stroke="hsl(209.60000000000002, 29.6%, 59.4%)" stroke-width="1.5"></path><path d="M1110.08 244.78L1103.42 368.78" stroke="hsl(209.60000000000002, 29.6%, 59.4%)" stroke-width="1.5"></path><path d="M1103.42 368.78L1103.42 368.78" stroke="hsl(209.60000000000002, 29.6%, 59.4%)" stroke-width="1.5"></path><path d="M1103.42 368.78L1240.53 390.8" stroke="hsl(209.60000000000002, 29.6%, 59.4%)" stroke-width="1.5"></path><path d="M1106.42 708.07L1106.42 708.07" stroke="hsl(209.60000000000002, 29.6%, 59.4%)" stroke-width="1.5"></path><path d="M1285.98 99.3L1285.98 99.3" stroke="hsl(209.60000000000002, 29.6%, 59.4%)" stroke-width="1.5"></path><path d="M1285.98 99.3L1391.2 80.96" stroke="hsl(209.60000000000002, 29.6%, 59.4%)" stroke-width="1.5"></path><path d="M1285.98 99.3L1251.25 205.18" stroke="hsl(209.60000000000002, 29.6%, 59.4%)" stroke-width="1.5"></path><path d="M1285.98 99.3L1136.81 110.43" stroke="hsl(209.60000000000002, 29.6%, 59.4%)" stroke-width="1.5"></path><path d="M1251.25 205.18L1251.25 205.18" stroke="hsl(209.60000000000002, 29.6%, 59.4%)" stroke-width="1.5"></path><path d="M1251.25 205.18L1110.08 244.78" stroke="hsl(209.60000000000002, 29.6%, 59.4%)" stroke-width="1.5"></path><path d="M1251.25 205.18L1413.14 257.53" stroke="hsl(209.60000000000002, 29.6%, 59.4%)" stroke-width="1.5"></path><path d="M1251.25 205.18L1240.53 390.8" stroke="hsl(209.60000000000002, 29.6%, 59.4%)" stroke-width="1.5"></path><path d="M1240.53 390.8L1240.53 390.8" stroke="hsl(209.60000000000002, 29.6%, 59.4%)" stroke-width="1.5"></path><path d="M1240.53 390.8L1408.77 385.51" stroke="hsl(209.60000000000002, 29.6%, 59.4%)" stroke-width="1.5"></path><path d="M1274.46 645.07L1274.46 645.07" stroke="hsl(209.60000000000002, 29.6%, 59.4%)" stroke-width="1.5"></path><path d="M1274.46 645.07L1405.52 697.5" stroke="hsl(209.60000000000002, 29.6%, 59.4%)" stroke-width="1.5"></path><path d="M1274.46 645.07L1387.77 536.4" stroke="hsl(209.60000000000002, 29.6%, 59.4%)" stroke-width="1.5"></path><path d="M1274.46 645.07L1106.42 708.07" stroke="hsl(209.60000000000002, 29.6%, 59.4%)" stroke-width="1.5"></path><path d="M1274.46 645.07L1240.53 390.8" stroke="hsl(209.60000000000002, 29.6%, 59.4%)" stroke-width="1.5"></path><path d="M1274.46 645.07L1408.77 385.51" stroke="hsl(209.60000000000002, 29.6%, 59.4%)" stroke-width="1.5"></path><path d="M1416.3 -98.9L1416.3 -98.9" stroke="hsl(209.60000000000002, 29.6%, 59.4%)" stroke-width="1.5"></path><path d="M1416.3 -98.9L1584.52 -64.7" stroke="hsl(209.60000000000002, 29.6%, 59.4%)" stroke-width="1.5"></path><path d="M1416.3 -98.9L1391.2 80.96" stroke="hsl(209.60000000000002, 29.6%, 59.4%)" stroke-width="1.5"></path><path d="M1416.3 -98.9L1285.98 99.3" stroke="hsl(209.60000000000002, 29.6%, 59.4%)" stroke-width="1.5"></path><path d="M1416.3 -98.9L1538.56 104.83" stroke="hsl(209.60000000000002, 29.6%, 59.4%)" stroke-width="1.5"></path><path d="M1416.3 -98.9L1559.71 213.14" stroke="hsl(209.60000000000002, 29.6%, 59.4%)" stroke-width="1.5"></path><path d="M1391.2 80.96L1391.2 80.96" stroke="hsl(209.60000000000002, 29.6%, 59.4%)" stroke-width="1.5"></path><path d="M1391.2 80.96L1538.56 104.83" stroke="hsl(209.60000000000002, 29.6%, 59.4%)" stroke-width="1.5"></path><path d="M1413.14 257.53L1413.14 257.53" stroke="hsl(209.60000000000002, 29.6%, 59.4%)" stroke-width="1.5"></path><path d="M1413.14 257.53L1408.77 385.51" stroke="hsl(209.60000000000002, 29.6%, 59.4%)" stroke-width="1.5"></path><path d="M1413.14 257.53L1559.71 213.14" stroke="hsl(209.60000000000002, 29.6%, 59.4%)" stroke-width="1.5"></path><path d="M1413.14 257.53L1391.2 80.96" stroke="hsl(209.60000000000002, 29.6%, 59.4%)" stroke-width="1.5"></path><path d="M1413.14 257.53L1538.56 104.83" stroke="hsl(209.60000000000002, 29.6%, 59.4%)" stroke-width="1.5"></path><path d="M1408.77 385.51L1408.77 385.51" stroke="hsl(209.60000000000002, 29.6%, 59.4%)" stroke-width="1.5"></path><path d="M1408.77 385.51L1387.77 536.4" stroke="hsl(209.60000000000002, 29.6%, 59.4%)" stroke-width="1.5"></path><path d="M1387.77 536.4L1387.77 536.4" stroke="hsl(209.60000000000002, 29.6%, 59.4%)" stroke-width="1.5"></path><path d="M1387.77 536.4L1405.52 697.5" stroke="hsl(209.60000000000002, 29.6%, 59.4%)" stroke-width="1.5"></path><path d="M1387.77 536.4L1240.53 390.8" stroke="hsl(209.60000000000002, 29.6%, 59.4%)" stroke-width="1.5"></path><path d="M1387.77 536.4L1568.75 690.09" stroke="hsl(209.60000000000002, 29.6%, 59.4%)" stroke-width="1.5"></path><path d="M1405.52 697.5L1405.52 697.5" stroke="hsl(209.60000000000002, 29.6%, 59.4%)" stroke-width="1.5"></path><path d="M1405.52 697.5L1568.75 690.09" stroke="hsl(209.60000000000002, 29.6%, 59.4%)" stroke-width="1.5"></path><path d="M1584.52 -64.7L1584.52 -64.7" stroke="hsl(209.60000000000002, 29.6%, 59.4%)" stroke-width="1.5"></path><path d="M1584.52 -64.7L1538.56 104.83" stroke="hsl(209.60000000000002, 29.6%, 59.4%)" stroke-width="1.5"></path><path d="M1584.52 -64.7L1391.2 80.96" stroke="hsl(209.60000000000002, 29.6%, 59.4%)" stroke-width="1.5"></path><path d="M1538.56 104.83L1538.56 104.83" stroke="hsl(209.60000000000002, 29.6%, 59.4%)" stroke-width="1.5"></path><path d="M1538.56 104.83L1559.71 213.14" stroke="hsl(209.60000000000002, 29.6%, 59.4%)" stroke-width="1.5"></path><path d="M1559.71 213.14L1559.71 213.14" stroke="hsl(209.60000000000002, 29.6%, 59.4%)" stroke-width="1.5"></path><path d="M1559.71 213.14L1591.07 356.69" stroke="hsl(209.60000000000002, 29.6%, 59.4%)" stroke-width="1.5"></path><path d="M1559.71 213.14L1391.2 80.96" stroke="hsl(209.60000000000002, 29.6%, 59.4%)" stroke-width="1.5"></path><path d="M1559.71 213.14L1408.77 385.51" stroke="hsl(209.60000000000002, 29.6%, 59.4%)" stroke-width="1.5"></path><path d="M1559.71 213.14L1584.52 -64.7" stroke="hsl(209.60000000000002, 29.6%, 59.4%)" stroke-width="1.5"></path><path d="M1591.07 356.69L1591.07 356.69" stroke="hsl(209.60000000000002, 29.6%, 59.4%)" stroke-width="1.5"></path><path d="M1591.07 356.69L1408.77 385.51" stroke="hsl(209.60000000000002, 29.6%, 59.4%)" stroke-width="1.5"></path><path d="M1568.75 690.09L1568.75 690.09" stroke="hsl(209.60000000000002, 29.6%, 59.4%)" stroke-width="1.5"></path><path d="M1568.75 690.09L1274.46 645.07" stroke="hsl(209.60000000000002, 29.6%, 59.4%)" stroke-width="1.5"></path><path d="M1568.75 690.09L1591.07 356.69" stroke="hsl(209.60000000000002, 29.6%, 59.4%)" stroke-width="1.5"></path><circle r="25" cx="-80.86" cy="654.95" fill="url(#SvgjsRadialGradient1013)"></circle><circle r="25" cx="236.5" cy="643.75" fill="url(#SvgjsRadialGradient1013)"></circle><circle r="25" cx="830.81" cy="492.15" fill="url(#SvgjsRadialGradient1013)"></circle><circle r="25" cx="995.71" cy="543.13" fill="url(#SvgjsRadialGradient1013)"></circle><circle r="25" cx="1110.51" cy="541.81" fill="url(#SvgjsRadialGradient1013)"></circle><circle r="25" cx="1257.85" cy="-54.6" fill="url(#SvgjsRadialGradient1013)"></circle><circle r="5" cx="-49.82" cy="504.29" fill="#a9bacb"></circle><circle r="5" cx="44.62" cy="525.01" fill="#a9bacb"></circle><circle r="5" cx="104.63" cy="706.82" fill="#a9bacb"></circle><circle r="5" cx="218.27" cy="490.05" fill="#a9bacb"></circle><circle r="5" cx="387.83" cy="505.73" fill="#a9bacb"></circle><circle r="5" cx="387.04" cy="660.97" fill="#a9bacb"></circle><circle r="5" cx="499.69" cy="557.31" fill="#a9bacb"></circle><circle r="5" cx="502.48" cy="692.68" fill="#a9bacb"></circle><circle r="5" cx="687.34" cy="374.14" fill="#a9bacb"></circle><circle r="5" cx="703.16" cy="558.95" fill="#a9bacb"></circle><circle r="5" cx="656.54" cy="657.49" fill="#a9bacb"></circle><circle r="5" cx="819.41" cy="343.87" fill="#a9bacb"></circle><circle r="5" cx="948.77" cy="352.7" fill="#a9bacb"></circle><circle r="5" cx="955.08" cy="639.4" fill="#a9bacb"></circle><circle r="5" cx="1136.81" cy="110.43" fill="#a9bacb"></circle><circle r="5" cx="1110.08" cy="244.78" fill="#a9bacb"></circle><circle r="5" cx="1103.42" cy="368.78" fill="#a9bacb"></circle><circle r="5" cx="1106.42" cy="708.07" fill="#a9bacb"></circle><circle r="5" cx="1285.98" cy="99.3" fill="#a9bacb"></circle><circle r="5" cx="1251.25" cy="205.18" fill="#a9bacb"></circle><circle r="5" cx="1240.53" cy="390.8" fill="#a9bacb"></circle><circle r="5" cx="1274.46" cy="645.07" fill="#a9bacb"></circle><circle r="5" cx="1416.3" cy="-98.9" fill="#a9bacb"></circle><circle r="5" cx="1391.2" cy="80.96" fill="#a9bacb"></circle><circle r="5" cx="1413.14" cy="257.53" fill="#a9bacb"></circle><circle r="5" cx="1408.77" cy="385.51" fill="#a9bacb"></circle><circle r="5" cx="1387.77" cy="536.4" fill="#a9bacb"></circle><circle r="5" cx="1405.52" cy="697.5" fill="#a9bacb"></circle><circle r="5" cx="1584.52" cy="-64.7" fill="#a9bacb"></circle><circle r="5" cx="1538.56" cy="104.83" fill="#a9bacb"></circle><circle r="5" cx="1559.71" cy="213.14" fill="#a9bacb"></circle><circle r="5" cx="1591.07" cy="356.69" fill="#a9bacb"></circle><circle r="5" cx="1568.75" cy="690.09" fill="#a9bacb"></circle></g><defs><mask id="SvgjsMask1012"><rect width="1440" height="560" fill="#ffffff"></rect></mask><radialGradient id="SvgjsRadialGradient1013"><stop stop-color="#ffffff" offset="0.1"></stop><stop stop-color="rgba(82, 117, 151, 1)" offset="0.2"></stop><stop stop-color="rgba(82, 117, 151, 0)" offset="1"></stop></radialGradient></defs></svg>