<svg xmlns="http://www.w3.org/2000/svg" version="1.1" xmlns:xlink="http://www.w3.org/1999/xlink" xmlns:svgjs="http://svgjs.com/svgjs" width="560" height="1440" preserveAspectRatio="none" viewBox="0 0 560 1440"><g mask="url(&quot;#SvgjsMask1054&quot;)" fill="none"><rect width="560" height="1440" x="0" y="0" fill="url(#SvgjsRadialGradient1055)"></rect><path d="M560 0L415.59000000000003 0L560 352.45z" fill="rgba(255, 255, 255, .1)"></path><path d="M415.59000000000003 0L560 352.45L560 707.0899999999999L250.36000000000004 0z" fill="rgba(255, 255, 255, .075)"></path><path d="M250.36 0L560 707.0899999999999L560 867.0899999999999L111.36000000000001 0z" fill="rgba(255, 255, 255, .05)"></path><path d="M111.36000000000001 0L560 867.0899999999999L560 1258.2399999999998L97.42000000000002 0z" fill="rgba(255, 255, 255, .025)"></path><path d="M0 1440L66.56 1440L0 1102.34z" fill="rgba(0, 0, 0, .1)"></path><path d="M0 1102.34L66.56 1440L229.9 1440L0 825.8699999999999z" fill="rgba(0, 0, 0, .075)"></path><path d="M0 825.8699999999999L229.9 1440L429.02 1440L0 637.9699999999999z" fill="rgba(0, 0, 0, .05)"></path><path d="M0 637.9699999999999L429.02 1440L489.25 1440L0 408.1599999999999z" fill="rgba(0, 0, 0, .025)"></path></g><defs><mask id="SvgjsMask1054"><rect width="560" height="1440" fill="#ffffff"></rect></mask><radialGradient cx="50%" cy="50%" r="772.53" gradientUnits="userSpaceOnUse" id="SvgjsRadialGradient1055"><stop stop-color="#0e2a47" offset="0"></stop><stop stop-color="rgba(228, 240, 255, 1)" offset="1"></stop></radialGradient></defs></svg>